HIERARCHY
ROOT joint_Root
{
	OFFSET 0.0 0.0 0.0
	CHANNELS 6 Xposition Yposition Zposition Zrotation Xrotation Yrotation 
	JOINT Hips
	{
		OFFSET -17.1583 93.1646 452.98
		CHANNELS 6 Xposition Yposition Zposition Zrotation Xrotation Yrotation 
		JOINT Spine
		{
			OFFSET 15.7357 0.0 0.0
			CHANNELS 6 Xposition Yposition Zposition Zrotation Xrotation Yrotation 
			JOINT Chest
			{
				OFFSET 8.98455 -0.406207 0.0
				CHANNELS 6 Xposition Yposition Zposition Zrotation Xrotation Yrotation 
				JOINT Neck
				{
					OFFSET 16.3773 0.0 0.0
					CHANNELS 6 Xposition Yposition Zposition Zrotation Xrotation Yrotation 
					JOINT Head
					{
						OFFSET 6.45672 0.0 0.0
						CHANNELS 6 Xposition Yposition Zposition Zrotation Xrotation Yrotation 
						End Site
						{
							OFFSET 0.0 0.0 0.0
						}
					}
				}
				JOINT Shoulder_L
				{
					OFFSET 12.9942 -0.242716 4.98039
					CHANNELS 6 Xposition Yposition Zposition Zrotation Xrotation Yrotation 
					JOINT UpperArm_L
					{
						OFFSET 5.34809 0.0 0.0
						CHANNELS 6 Xposition Yposition Zposition Zrotation Xrotation Yrotation 
						JOINT LowerArm_L
						{
							OFFSET 24.3286 1.87007e-05 0.0
							CHANNELS 6 Xposition Yposition Zposition Zrotation Xrotation Yrotation 
							JOINT Hand_L
							{
								OFFSET 22.2916 0.0 0.0
								CHANNELS 6 Xposition Yposition Zposition Zrotation Xrotation Yrotation 
								End Site
								{
									OFFSET 0.0 0.0 0.0
								}
							}
						}
					}
				}
				JOINT Shoulder_R
				{
					OFFSET 12.9945 -0.242716 -4.98039
					CHANNELS 6 Xposition Yposition Zposition Zrotation Xrotation Yrotation 
					JOINT UpperArm_R
					{
						OFFSET -5.34813 0.0 0.0
						CHANNELS 6 Xposition Yposition Zposition Zrotation Xrotation Yrotation 
						JOINT LowerArm_R
						{
							OFFSET -24.3289 0.000322201 0.0
							CHANNELS 6 Xposition Yposition Zposition Zrotation Xrotation Yrotation 
							JOINT Hand_R
							{
								OFFSET -22.2915 -0.000108084 0.0
								CHANNELS 6 Xposition Yposition Zposition Zrotation Xrotation Yrotation 
								End Site
								{
									OFFSET 0.0 0.0 0.0
								}
							}
						}
					}
				}
			}
		}
		JOINT UpperLeg_L
		{
			OFFSET -2.19248 -6.46944 0.0
			CHANNELS 6 Xposition Yposition Zposition Zrotation Xrotation Yrotation 
			JOINT LowerLeg_L
			{
				OFFSET 39.0811 0.0 -1.23785e-05
				CHANNELS 6 Xposition Yposition Zposition Zrotation Xrotation Yrotation 
				JOINT Foot_L
				{
					OFFSET 40.9854 0.0 -1.26872e-05
					CHANNELS 6 Xposition Yposition Zposition Zrotation Xrotation Yrotation 
					JOINT Toes_L
					{
						OFFSET 11.7543 0.0 0.0
						CHANNELS 6 Xposition Yposition Zposition Zrotation Xrotation Yrotation 
						End Site
						{
							OFFSET 0.0 0.0 0.0
						}
					}
				}
			}
		}
		JOINT UpperLeg_R
		{
			OFFSET -2.19251 6.46944 0.0
			CHANNELS 6 Xposition Yposition Zposition Zrotation Xrotation Yrotation 
			JOINT LowerLeg_R
			{
				OFFSET -39.0811 -0.00228153 -0.0401928
				CHANNELS 6 Xposition Yposition Zposition Zrotation Xrotation Yrotation 
				JOINT Foot_R
				{
					OFFSET -40.9854 0.0 0.0
					CHANNELS 6 Xposition Yposition Zposition Zrotation Xrotation Yrotation 
					JOINT Toes_R
					{
						OFFSET -11.7543 0.0 0.0
						CHANNELS 6 Xposition Yposition Zposition Zrotation Xrotation Yrotation 
						End Site
						{
							OFFSET 0.0 0.0 0.0
						}
					}
				}
			}
		}
	}
}
MOTION
Frames:	7
Frame Time:	0.0333333
0.000000 0.000000 0.000000 0.000000 0.000000 -0.000000 1.556690 88.141400 -16.469000 85.549100 5.048810 -2.623280 15.735700 0.000005 -0.000001 28.622200 86.348600 -25.706400 8.984550 -0.406207 -0.000000 -4.104350 -6.707440 5.599130 16.377300 -0.000001 -0.000001 0.115778 1.274550 -2.563510 6.456720 -0.000001 -0.000000 1.411230 3.043730 -2.062230 12.994200 -0.242716 4.980390 -92.731400 8.530870 -72.172000 5.348090 -0.000007 -0.000001 -74.390700 -7.729770 -1.320840 24.328600 0.000019 0.000005 27.925400 25.391100 -51.023700 22.291600 -0.000001 0.000005 54.480800 4.283660 20.040200 12.994500 -0.242716 -4.980390 88.883300 3.120300 -70.297600 -5.348130 -0.000001 -0.000004 -62.665600 -5.740820 9.456580 -24.328900 0.000322 -0.000009 0.012213 0.352067 -2.165930 -22.291500 -0.000108 -0.000004 51.176900 5.397220 -2.848840 -2.192480 -6.469440 -0.000000 -169.666000 -2.761520 2.861240 39.081100 -0.000007 -0.000012 0.160274 -0.173472 42.735100 40.985400 -0.000006 -0.000013 -13.047900 23.824500 -35.354300 11.754300 -0.000000 0.000003 -0.062025 -0.338315 -30.556000 -2.192510 6.469440 -0.000001 -170.321000 0.064316 146.546000 -39.081100 -0.002282 -0.040193 0.099681 -0.141569 34.249400 -40.985400 0.000008 0.000006 2.515180 -10.134400 -61.857800 -11.754300 -0.000006 -0.000006 -0.008841 0.262433 -5.913700
0.000000 0.000000 0.000000 0.000000 0.000000 -0.000000 1.163350 88.027900 -11.314600 84.512700 5.220490 -0.516500 15.735700 0.000005 -0.000001 41.229000 86.323800 -37.966800 8.984550 -0.406207 -0.000000 -2.751990 -5.826680 6.389330 16.377300 -0.000001 -0.000001 0.535438 0.941310 -2.331260 6.456720 -0.000001 -0.000000 1.493810 2.154990 -2.391960 12.994200 -0.242716 4.980390 -92.846900 8.747100 -71.892000 5.348090 -0.000007 -0.000001 -74.774500 -5.628780 -0.084235 24.328600 0.000019 0.000005 23.410000 27.155100 -43.488000 22.291600 -0.000001 0.000005 53.561200 4.320500 19.473900 12.994500 -0.242716 -4.980390 88.744100 3.498530 -70.239100 -5.348130 -0.000001 -0.000004 -65.184600 -2.304930 5.422080 -24.328900 0.000322 -0.000009 -0.088522 -1.384700 -3.596070 -22.291500 -0.000108 -0.000004 50.129300 5.409260 -3.245240 -2.192480 -6.469440 -0.000000 -168.501000 0.220570 -3.021830 39.081100 -0.000007 -0.000012 0.336490 -0.250340 53.351700 40.985400 -0.000006 -0.000013 -21.313600 14.950100 -21.363100 11.754300 -0.000000 0.000003 0.002421 0.070089 -13.734100 -2.192510 6.469440 -0.000001 -168.596000 0.824664 150.254000 -39.081100 -0.002282 -0.040193 0.159288 -0.198407 38.177600 -40.985400 0.000008 0.000006 2.755540 -10.168500 -67.112700 -11.754300 -0.000006 -0.000006 -0.009964 0.271033 -5.562130
0.000000 0.000000 0.000000 0.000000 0.000000 -0.000000 0.847213 88.568400 -6.618100 83.818000 5.798050 0.826484 15.735700 0.000005 -0.000001 49.574900 86.339500 -46.139300 8.984550 -0.406207 -0.000000 -2.035130 -5.039670 6.784230 16.377300 -0.000001 -0.000001 1.304100 0.405662 -1.760520 6.456720 -0.000001 -0.000000 2.020270 1.249540 -2.429830 12.994200 -0.242716 4.980390 -92.732800 8.359710 -71.824200 5.348090 -0.000007 -0.000001 -75.222900 -4.118320 0.713577 24.328600 0.000019 0.000005 19.367300 29.937600 -35.157600 22.291600 -0.000001 0.000005 53.496500 4.382490 18.501800 12.994500 -0.242716 -4.980390 88.586200 3.872120 -69.923900 -5.348130 -0.000001 -0.000004 -66.917100 2.479610 1.332140 -24.328900 0.000322 -0.000009 -0.183273 -1.752720 -5.931830 -22.291500 -0.000108 -0.000004 49.282100 5.443750 -4.423930 -2.192480 -6.469440 -0.000000 -168.132000 2.961460 -9.443520 39.081100 -0.000007 -0.000012 0.356703 -0.181197 63.070100 40.985400 -0.000006 -0.000013 -19.961700 13.246700 -26.663200 11.754300 -0.000000 0.000003 0.002313 0.061596 -14.078400 -2.192510 6.469440 -0.000001 -167.480000 2.816490 155.096000 -39.081100 -0.002282 -0.040193 0.122461 -0.152855 37.942700 -40.985400 0.000008 0.000006 2.030060 -9.160910 -70.402900 -11.754300 -0.000006 -0.000006 -0.010154 0.272454 -5.503990
0.000000 0.000000 0.000000 0.000000 0.000000 -0.000000 0.858844 89.404500 -2.165350 84.437600 5.585640 2.095960 15.735700 0.000005 -0.000001 59.136700 86.286500 -56.069700 8.984550 -0.406207 -0.000000 -1.275370 -4.051030 6.088950 16.377300 -0.000001 -0.000001 2.104210 0.136392 -1.113390 6.456720 -0.000001 -0.000000 2.730570 0.516945 -2.003380 12.994200 -0.242716 4.980390 -92.477000 7.492120 -71.645500 5.348090 -0.000007 -0.000001 -75.296700 -3.955630 2.007150 24.328600 0.000019 0.000005 14.724400 29.865300 -27.820000 22.291600 -0.000001 0.000005 52.819500 4.411580 18.036700 12.994500 -0.242716 -4.980390 88.537000 3.983190 -69.813500 -5.348130 -0.000001 -0.000004 -68.129500 7.082920 -2.487070 -24.328900 0.000322 -0.000009 -0.390360 -2.299350 -9.595650 -22.291500 -0.000108 -0.000004 48.563200 5.468000 -5.295940 -2.192480 -6.469440 -0.000000 -169.716000 4.356230 -14.933900 39.081100 -0.000007 -0.000012 0.221380 -0.085853 68.802100 40.985400 -0.000006 -0.000013 -14.222800 13.096800 -33.387300 11.754300 -0.000000 0.000003 0.002378 0.066236 -13.890300 -2.192510 6.469440 -0.000001 -168.257000 4.176450 160.831000 -39.081100 -0.002282 -0.040193 0.043526 -0.055570 35.907600 -40.985400 0.000008 0.000006 0.648004 -7.722960 -72.375200 -11.754300 -0.000006 -0.000006 -0.009419 0.266912 -5.730620
0.000000 0.000000 0.000000 0.000000 0.000000 -0.000000 1.095410 90.394200 2.101610 85.807200 4.892070 2.929810 15.735700 0.000005 -0.000001 67.441700 86.206800 -65.002900 8.984550 -0.406207 -0.000000 -0.689377 -3.089560 4.857490 16.377300 -0.000001 -0.000001 3.010710 0.084891 -0.539340 6.456720 -0.000001 -0.000000 3.147440 0.105970 -1.632140 12.994200 -0.242716 4.980390 -92.247300 6.634580 -71.239200 5.348090 -0.000007 -0.000001 -74.586500 -5.949730 3.897330 24.328600 0.000019 0.000005 11.897400 29.394100 -23.231300 22.291600 -0.000001 0.000005 52.143500 4.416060 17.966000 12.994500 -0.242716 -4.980390 88.668800 3.611980 -69.753300 -5.348130 -0.000001 -0.000004 -69.159700 10.342000 -6.007550 -24.328900 0.000322 -0.000009 -0.619414 -2.453300 -14.153100 -22.291500 -0.000108 -0.000004 48.717800 5.479170 -5.717780 -2.192480 -6.469440 -0.000000 -172.055000 5.433360 -19.431300 39.081100 -0.000007 -0.000012 0.159511 -0.056694 70.431700 40.985400 -0.000006 -0.000013 -11.582700 9.273160 -40.065500 11.754300 -0.000000 0.000003 0.002320 0.062048 -14.060100 -2.192510 6.469440 -0.000001 -170.022000 4.929830 166.758000 -39.081100 -0.002282 -0.040193 0.011942 -0.013561 32.516700 -40.985400 0.000008 0.000006 -0.102708 -6.254060 -73.217300 -11.754300 -0.000006 -0.000006 -0.008517 0.259870 -6.018420
0.000000 0.000000 0.000000 0.000000 0.000000 -0.000000 1.441020 91.367800 6.121520 87.524200 3.713030 2.990460 15.735700 0.000005 -0.000001 74.805000 86.248900 -73.089400 8.984550 -0.406207 -0.000000 -0.492396 -2.089500 3.420660 16.377300 -0.000001 -0.000001 3.760100 0.176507 -0.174016 6.456720 -0.000001 -0.000000 3.348360 -0.079581 -1.293510 12.994200 -0.242716 4.980390 -92.134500 6.123240 -70.739700 5.348090 -0.000007 -0.000001 -72.691600 -7.994770 6.601150 24.328600 0.000019 0.000005 11.065200 29.031800 -21.948000 22.291600 -0.000001 0.000005 51.708500 4.428760 17.762300 12.994500 -0.242716 -4.980390 88.833600 3.169840 -69.786500 -5.348130 -0.000001 -0.000004 -69.622500 13.058400 -9.152340 -24.328900 0.000322 -0.000009 -0.778229 -2.247430 -19.084000 -22.291500 -0.000108 -0.000004 48.700900 5.484310 -5.914210 -2.192480 -6.469440 -0.000000 -174.679000 5.757470 -23.325700 39.081100 -0.000007 -0.000012 0.082311 -0.032674 68.345500 40.985400 -0.000006 -0.000013 -8.051590 5.437210 -47.040800 11.754300 -0.000000 0.000003 0.002356 0.064536 -13.959200 -2.192510 6.469440 -0.000001 -172.231000 5.097280 172.136000 -39.081100 -0.002282 -0.040193 0.003834 -0.000983 28.250100 -40.985400 0.000008 0.000006 -0.422305 -4.739380 -73.165900 -11.754300 -0.000006 -0.000006 -0.008028 0.255925 -6.179580
0.000000 0.000000 0.000000 0.000000 0.000000 -0.000000 1.862560 92.148600 9.920170 89.174400 2.046170 2.364480 15.735700 0.000005 -0.000001 82.621400 86.435300 -81.569100 8.984550 -0.406207 -0.000000 -0.685719 -0.992977 2.097700 16.377300 -0.000001 -0.000001 4.283050 0.475386 -0.134719 6.456720 -0.000001 -0.000000 3.375340 -0.189497 -0.971460 12.994200 -0.242716 4.980390 -92.103600 5.802240 -70.031800 5.348090 -0.000007 -0.000001 -70.142900 -9.774710 9.474370 24.328600 0.000019 0.000005 11.353500 29.017800 -22.486200 22.291600 -0.000001 0.000005 51.608100 4.430320 17.737300 12.994500 -0.242716 -4.980390 88.961100 2.859910 -70.026900 -5.348130 -0.000001 -0.000004 -69.880000 14.167100 -11.187900 -24.328900 0.000322 -0.000009 -0.495747 -1.044180 -25.399400 -22.291500 -0.000108 -0.000004 48.302200 5.484310 -5.914520 -2.192480 -6.469440 -0.000000 -176.911000 5.774290 -26.444100 39.081100 -0.000007 -0.000012 0.039709 -0.020700 62.461500 40.985400 -0.000006 -0.000013 -5.636160 0.782198 -52.767400 11.754300 -0.000000 0.000003 0.002398 0.067913 -13.822300 -2.192510 6.469440 -0.000001 -174.378000 4.421230 176.639000 -39.081100 -0.002282 -0.040193 -0.000291 0.008205 23.724500 -40.985400 0.000008 0.000006 -0.821724 -3.495620 -72.666800 -11.754300 -0.000006 -0.000006 -0.007896 0.254852 -6.223390
